<svg xmlns="http://www.w3.org/2000/svg" xmlns:xlink="http://www.w3.org/1999/xlink" width="512" zoomAndPan="magnify" viewBox="415 100 610 610" height="512" preserveAspectRatio="xMidYMid meet" version="1.0"><defs><clipPath id="f45a57dbf2"><path d="M 464.707031 115.589844 L 975.28125 115.589844 L 975.28125 694.585938 L 464.707031 694.585938 Z M 464.707031 115.589844 " clip-rule="nonzero"/></clipPath><clipPath id="1e2e8a5096"><path d="M 634.992188 130.335938 C 661.082031 121.433594 690.925781 115.589844 720.132812 115.589844 C 749.339844 115.589844 777.445312 120.597656 803.347656 129.5 C 803.898438 129.777344 804.449219 129.777344 805 130.054688 C 902.265625 165.664062 973.90625 259.6875 975.28125 368.464844 L 975.28125 694.40625 L 464.707031 694.40625 L 464.707031 368.707031 C 466.085938 259.128906 536.625 165.105469 634.992188 130.335938 Z M 634.992188 130.335938 " clip-rule="nonzero"/></clipPath><clipPath id="3fff1ad992"><path d="M 556.726562 297.472656 L 882.976562 297.472656 L 882.976562 600.472656 L 556.726562 600.472656 Z M 556.726562 297.472656 " clip-rule="nonzero"/></clipPath></defs><rect x="-144" width="1728" fill="#ffffff" y="-80.999999" height="971.999992" fill-opacity="1"/><rect x="-144" width="1728" fill="#9b5364" y="-80.999999" height="971.999992" fill-opacity="1"/><g clip-path="url(#f45a57dbf2)"><g clip-path="url(#1e2e8a5096)"><path stroke-linecap="butt" transform="matrix(0.75, 0, 0, 0.75, 464.708575, 115.587026)" fill="none" stroke-linejoin="miter" d="M 227.044814 19.665215 C 261.831272 7.795423 301.622938 0.00375675 340.565646 0.00375675 C 379.508353 0.00375675 416.982311 6.68084 451.518769 18.550631 C 452.253144 18.920423 452.987519 18.920423 453.721894 19.290215 C 583.409392 66.769381 678.930224 192.133962 680.763558 337.170419 L 680.763558 771.758955 L -0.00205812 771.758955 L -0.00205812 337.493335 C 1.836484 191.389171 95.888566 66.024589 227.044814 19.665215 Z M 227.044814 19.665215 " stroke="#f0ece3" stroke-width="4" stroke-opacity="1" stroke-miterlimit="4"/></g></g><path fill="#ffffff" d="M 652.332031 528.578125 C 653.144531 530.214844 653.996094 531.832031 654.875 533.417969 C 675.984375 539.976562 695.199219 550.273438 714.257812 558.996094 C 708.65625 554.320312 703.4375 549.015625 698.714844 543.082031 C 682.007812 522.117188 671.390625 493.273438 671.390625 456.464844 C 671.390625 374.691406 725.179688 338.714844 774.242188 338.714844 C 817.492188 338.714844 856.742188 367.0625 850.199219 416.851562 L 861.828125 363.789062 C 834.570312 343.074219 803.316406 333.261719 772.789062 333.261719 C 703.375 333.261719 638.683594 384.140625 638.683594 468.09375 C 638.683594 490.898438 643.679688 511.175781 652.332031 528.578125 Z M 652.332031 528.578125 " fill-opacity="1" fill-rule="nonzero"/><g clip-path="url(#3fff1ad992)"><path fill="#ffffff" d="M 880.367188 537.875 C 866.351562 557.863281 847.109375 571.460938 825.941406 578.757812 L 785.195312 585.09375 L 785.191406 585.09375 C 778.378906 586.042969 771.910156 586.464844 765.703125 586.464844 C 733.476562 586.464844 708.195312 575 679.476562 564.699219 L 679.472656 564.699219 C 656.046875 556.296875 630.339844 548.667969 596.707031 548.667969 C 612.335938 546.753906 613.128906 545.121094 613.089844 526.8125 C 613.085938 525.808594 613.082031 524.753906 613.078125 523.644531 C 613.074219 523.273438 613.074219 522.898438 613.074219 522.511719 C 613.066406 521.132812 613.0625 519.679688 613.0625 518.140625 L 613.0625 332.785156 C 613.0625 315.820312 616.714844 307.453125 622.8125 302.992188 C 627.417969 299.613281 633.429688 298.472656 640.316406 297.535156 L 556.726562 297.535156 C 573.078125 299.714844 583.984375 302.984375 583.984375 332.785156 L 583.984375 516.683594 C 583.984375 518.363281 583.949219 519.953125 583.878906 521.46875 C 583.796875 523.371094 583.65625 525.152344 583.46875 526.8125 C 581.125 547.300781 571.003906 550.035156 556.730469 551.9375 L 606.15625 551.9375 C 668.304688 553.027344 710.824219 600.273438 764.25 600.273438 C 766.453125 600.273438 768.675781 600.191406 770.929688 600.019531 C 771.066406 600.019531 771.203125 600.019531 771.339844 600.019531 C 813.132812 600.019531 855.292969 581.121094 883.277344 538.964844 Z M 880.367188 537.875 " fill-opacity="1" fill-rule="nonzero"/></g></svg>